<svg version="1.1" id="Layer_1" xmlns="http://www.w3.org/2000/svg" xmlns:xlink="http://www.w3.org/1999/xlink" x="0px" y="0px"
	 width="100%" viewBox="0 0 844 364" enable-background="new 0 0 844 364" xml:space="preserve">
<path fill="#1D1D1D" opacity="1.000000" stroke="none" 
	d="
M530.000000,365.000000 
	C353.333344,365.000000 177.166672,365.000000 1.000000,365.000000 
	C1.000000,243.666672 1.000000,122.333336 1.000000,1.000000 
	C282.333344,1.000000 563.666687,1.000000 845.000000,1.000000 
	C845.000000,122.333336 845.000000,243.666672 845.000000,365.000000 
	C740.166687,365.000000 635.333313,365.000000 530.000000,365.000000 
M244.620361,271.183777 
	C248.222656,265.990509 251.479965,260.512787 255.486618,255.652893 
	C273.324036,234.016785 296.210938,220.699341 323.659698,215.198395 
	C326.743774,214.580338 329.647736,213.638092 328.335663,209.947174 
	C327.817963,208.491013 325.121063,207.360092 323.220306,206.910629 
	C273.477570,195.148697 242.718079,164.501266 230.938416,114.719841 
	C230.454926,112.676544 228.617096,109.769173 226.967468,109.432236 
	C223.501450,108.724297 223.153839,112.129211 222.538712,114.757309 
	C210.831345,164.775543 179.891602,195.444397 129.864731,207.040085 
	C128.025024,207.466507 126.576782,209.581772 124.946121,210.909988 
	C126.646507,212.336212 128.127762,214.406937 130.086624,215.072937 
	C137.159454,217.477631 144.668228,218.753723 151.520309,221.628738 
	C190.130875,237.828934 213.663864,266.678467 222.722900,307.523346 
	C223.166489,309.523376 225.344208,311.138733 226.714432,312.933228 
	C228.143967,311.194427 230.442230,309.642120 230.861969,307.686584 
	C233.574677,295.048187 237.862701,283.051880 244.620361,271.183777 
M140.092117,52.208878 
	C138.960831,48.387238 137.957687,44.520512 136.636658,40.765625 
	C136.090500,39.213215 134.862854,37.900551 133.945160,36.478851 
	C132.936539,37.958729 131.415588,39.306652 130.995407,40.938084 
	C123.506416,70.015854 105.284149,88.284958 76.245766,95.884377 
	C74.526688,96.334259 73.044365,97.688812 71.451874,98.622391 
	C72.959038,99.644943 74.333405,101.191689 75.993103,101.612160 
	C105.362633,109.052635 123.556976,127.522362 131.035568,156.792191 
	C131.426880,158.323700 132.811234,159.601501 133.733261,160.997406 
	C134.698212,159.647812 136.177063,158.426956 136.552155,156.929611 
	C143.959229,127.361320 162.391342,108.932800 191.957657,101.525002 
	C193.466385,101.146996 194.706085,99.695229 196.071045,98.743401 
	C194.700211,97.808044 193.449234,96.375099 191.940628,96.011665 
	C167.615631,90.151581 150.412735,75.844978 140.092117,52.208878 
M657.368286,251.177872 
	C672.822571,260.597382 686.614502,257.785706 699.276489,244.871918 
	C699.423218,247.126633 698.968628,249.144760 699.762878,250.316086 
	C701.077698,252.255051 703.191711,254.916794 704.978821,254.924255 
	C706.863098,254.932114 708.881470,252.306610 710.576599,250.572861 
	C711.100281,250.037231 710.804077,248.654388 710.804504,247.659439 
	C710.812073,228.525284 710.814087,209.391113 710.791199,190.256973 
	C710.789856,189.105316 711.004150,187.506851 710.367920,186.889862 
	C708.742737,185.313766 706.649109,183.095520 704.826172,183.170151 
	C703.060669,183.242432 701.083618,185.629242 699.807190,187.430237 
	C699.008057,188.557663 699.332092,190.481201 699.079895,192.677231 
	C698.129944,191.820450 697.661072,191.414902 697.211182,190.989243 
	C681.602356,176.220352 658.224426,179.330780 647.240662,197.639465 
	C636.878845,214.911560 641.050049,238.192505 657.368286,251.177872 
M481.190521,222.240051 
	C481.312714,223.230301 481.403137,224.225647 481.561768,225.210022 
	C485.054108,246.882019 503.731537,260.058167 525.059082,255.902573 
	C545.184509,251.981186 557.726074,230.637421 552.428711,209.323639 
	C547.315918,188.752213 527.355591,177.219208 506.953186,183.048096 
	C490.771484,187.671143 480.961853,202.215805 481.190521,222.240051 
M321.371490,69.311325 
	C307.876343,62.177971 300.758575,50.267178 296.535187,35.539413 
	C291.223083,57.041515 277.927032,70.019508 256.597076,75.608353 
	C278.259399,80.902969 291.060669,94.209129 296.689667,115.533562 
	C301.884186,93.785301 315.284058,81.046387 336.604248,76.224754 
	C336.440857,75.832726 336.277496,75.440689 336.114136,75.048653 
	C331.412598,73.269356 326.711060,71.490051 321.371490,69.311325 
M415.022339,210.909470 
	C415.838135,199.547913 424.899323,191.796127 437.137634,191.990005 
	C447.743134,192.157990 453.074860,198.376373 453.411407,210.982635 
	C453.446960,212.313965 453.441254,213.646576 453.442993,214.978607 
	C453.457672,226.301163 453.437286,237.623886 453.501312,248.946152 
	C453.521667,252.543747 454.990479,255.167511 459.014221,255.237122 
	C462.741882,255.301620 464.658661,252.892395 464.638702,249.559250 
	C464.544067,233.754700 464.792023,217.913025 463.754852,202.161148 
	C463.023926,191.060455 456.000977,183.855957 446.474579,182.192139 
	C435.778961,180.324097 426.345093,183.004898 418.561890,190.798187 
	C417.570709,191.790619 416.622101,192.825562 415.141357,194.378098 
	C415.068115,192.903198 415.024780,192.286636 415.008820,191.669357 
	C414.859100,185.886475 413.158936,183.405731 409.363281,183.441437 
	C405.557861,183.477234 403.838104,186.031982 403.834534,191.766357 
	C403.822937,210.415359 403.814636,229.064362 403.837128,247.713333 
	C403.843414,252.935852 405.780609,255.510941 409.592834,255.227203 
	C414.185486,254.885361 415.039673,251.684326 415.024719,247.796921 
	C414.978577,235.808472 415.010559,223.819702 415.022339,210.909470 
M616.860413,219.436005 
	C620.950073,209.980988 625.012024,200.513809 629.144043,191.077347 
	C630.637939,187.665771 631.142700,184.421432 627.019409,182.710419 
	C622.916321,181.007812 620.905334,183.722641 619.479004,187.073517 
	C617.592163,191.506393 615.713562,195.942810 613.810852,200.368881 
	C608.577026,212.544357 603.332458,224.715256 597.794128,237.580215 
	C596.715271,235.248764 595.942505,233.684311 595.257629,232.082306 
	C588.855896,217.109131 582.459961,202.133469 576.085022,187.148880 
	C574.534973,183.505356 572.096497,181.109680 567.987000,182.688934 
	C563.626221,184.364807 564.030212,187.731018 565.631470,191.376785 
	C574.250977,211.002319 582.703552,230.702347 591.517883,250.239471 
	C592.480164,252.372406 595.389771,254.922699 597.396179,254.922714 
	C599.386658,254.922729 602.209839,252.340012 603.225098,250.204193 
	C607.930542,240.305573 612.134216,230.168427 616.860413,219.436005 
z"/>
<path fill="#C9EAF4" opacity="1.000000" stroke="none" 
	d="
M244.416992,271.488678 
	C237.862701,283.051880 233.574677,295.048187 230.861969,307.686584 
	C230.442230,309.642120 228.143967,311.194427 226.714432,312.933228 
	C225.344208,311.138733 223.166489,309.523376 222.722900,307.523346 
	C213.663864,266.678467 190.130875,237.828934 151.520309,221.628738 
	C144.668228,218.753723 137.159454,217.477631 130.086624,215.072937 
	C128.127762,214.406937 126.646507,212.336212 124.946114,210.909988 
	C126.576782,209.581772 128.025024,207.466507 129.864731,207.040085 
	C179.891602,195.444397 210.831345,164.775543 222.538712,114.757309 
	C223.153839,112.129211 223.501450,108.724297 226.967468,109.432236 
	C228.617096,109.769173 230.454926,112.676544 230.938416,114.719841 
	C242.718079,164.501266 273.477570,195.148697 323.220306,206.910629 
	C325.121063,207.360092 327.817963,208.491013 328.335663,209.947174 
	C329.647736,213.638092 326.743774,214.580338 323.659698,215.198395 
	C296.210938,220.699341 273.324036,234.016785 255.486618,255.652893 
	C251.479965,260.512787 248.222656,265.990509 244.416992,271.488678 
z"/>
<path fill="#C8E9F3" opacity="1.000000" stroke="none" 
	d="
M140.230316,52.569073 
	C150.412735,75.844978 167.615631,90.151581 191.940628,96.011665 
	C193.449234,96.375099 194.700211,97.808044 196.071045,98.743408 
	C194.706085,99.695229 193.466385,101.146996 191.957657,101.525002 
	C162.391342,108.932800 143.959229,127.361320 136.552155,156.929611 
	C136.177063,158.426956 134.698212,159.647812 133.733261,160.997406 
	C132.811234,159.601501 131.426880,158.323700 131.035568,156.792191 
	C123.556976,127.522362 105.362633,109.052635 75.993103,101.612160 
	C74.333405,101.191689 72.959038,99.644943 71.451874,98.622391 
	C73.044365,97.688812 74.526688,96.334259 76.245766,95.884377 
	C105.284149,88.284958 123.506416,70.015854 130.995407,40.938084 
	C131.415588,39.306652 132.936539,37.958729 133.945160,36.478851 
	C134.862854,37.900551 136.090500,39.213215 136.636658,40.765625 
	C137.957687,44.520512 138.960831,48.387238 140.230316,52.569073 
z"/>
<path fill="#C5E5EE" opacity="1.000000" stroke="none" 
	d="
M657.065308,250.980469 
	C641.050049,238.192505 636.878845,214.911560 647.240662,197.639465 
	C658.224426,179.330780 681.602356,176.220352 697.211182,190.989243 
	C697.661072,191.414902 698.129944,191.820450 699.079895,192.677231 
	C699.332092,190.481201 699.008057,188.557663 699.807190,187.430237 
	C701.083618,185.629242 703.060669,183.242432 704.826172,183.170151 
	C706.649109,183.095520 708.742737,185.313766 710.367920,186.889862 
	C711.004150,187.506851 710.789856,189.105316 710.791199,190.256973 
	C710.814087,209.391113 710.812073,228.525284 710.804504,247.659439 
	C710.804077,248.654388 711.100281,250.037231 710.576599,250.572861 
	C708.881470,252.306610 706.863098,254.932114 704.978821,254.924255 
	C703.191711,254.916794 701.077698,252.255051 699.762878,250.316086 
	C698.968628,249.144760 699.423218,247.126633 699.276489,244.871918 
	C686.614502,257.785706 672.822571,260.597382 657.065308,250.980469 
M669.685791,245.301910 
	C682.487732,248.229614 692.946167,243.208694 697.672791,231.468628 
	C701.324951,222.397293 701.126465,213.214966 696.642029,204.437637 
	C689.905518,191.252289 673.102722,187.879669 661.834229,197.103912 
	C647.881592,208.525375 649.636047,238.556412 669.685791,245.301910 
z"/>
<path fill="#C6E5EF" opacity="1.000000" stroke="none" 
	d="
M481.166260,221.779083 
	C480.961853,202.215805 490.771484,187.671143 506.953186,183.048096 
	C527.355591,177.219208 547.315918,188.752213 552.428711,209.323639 
	C557.726074,230.637421 545.184509,251.981186 525.059082,255.902573 
	C503.731537,260.058167 485.054108,246.882019 481.561768,225.210022 
	C481.403137,224.225647 481.312714,223.230301 481.166260,221.779083 
M541.887756,213.124512 
	C540.596313,206.514694 537.630920,200.850159 532.131592,196.815536 
	C524.523071,191.233475 516.139587,190.288330 507.574646,194.012451 
	C497.744446,198.286728 493.278870,206.496567 492.353363,216.863159 
	C491.105835,230.835999 500.275085,243.809753 512.830444,245.902054 
	C526.393066,248.162216 538.532837,240.110611 541.492004,226.412949 
	C542.353149,222.426651 541.865173,218.148865 541.887756,213.124512 
z"/>
<path fill="#C7E8F1" opacity="1.000000" stroke="none" 
	d="
M321.690521,69.511040 
	C326.711060,71.490051 331.412598,73.269356 336.114136,75.048653 
	C336.277496,75.440689 336.440857,75.832726 336.604248,76.224754 
	C315.284058,81.046387 301.884186,93.785301 296.689667,115.533562 
	C291.060669,94.209129 278.259399,80.902969 256.597076,75.608353 
	C277.927032,70.019508 291.223083,57.041515 296.535187,35.539413 
	C300.758575,50.267178 307.876343,62.177971 321.690521,69.511040 
z"/>
<path fill="#C4E4ED" opacity="1.000000" stroke="none" 
	d="
M415.017273,211.370270 
	C415.010559,223.819702 414.978577,235.808472 415.024719,247.796921 
	C415.039673,251.684326 414.185486,254.885361 409.592834,255.227203 
	C405.780609,255.510941 403.843414,252.935852 403.837128,247.713333 
	C403.814636,229.064362 403.822937,210.415359 403.834534,191.766357 
	C403.838104,186.031982 405.557861,183.477234 409.363281,183.441437 
	C413.158936,183.405731 414.859100,185.886475 415.008820,191.669357 
	C415.024780,192.286636 415.068115,192.903198 415.141357,194.378098 
	C416.622101,192.825562 417.570709,191.790619 418.561890,190.798187 
	C426.345093,183.004898 435.778961,180.324097 446.474579,182.192139 
	C456.000977,183.855957 463.023926,191.060455 463.754852,202.161148 
	C464.792023,217.913025 464.544067,233.754700 464.638702,249.559250 
	C464.658661,252.892395 462.741882,255.301620 459.014221,255.237122 
	C454.990479,255.167511 453.521667,252.543747 453.501312,248.946152 
	C453.437286,237.623886 453.457672,226.301163 453.442993,214.978607 
	C453.441254,213.646576 453.446960,212.313965 453.411407,210.982635 
	C453.074860,198.376373 447.743134,192.157990 437.137634,191.990005 
	C424.899323,191.796127 415.838135,199.547913 415.017273,211.370270 
z"/>
<path fill="#C6E5ED" opacity="1.000000" stroke="none" 
	d="
M616.688965,219.776367 
	C612.134216,230.168427 607.930542,240.305573 603.225098,250.204193 
	C602.209839,252.340012 599.386658,254.922729 597.396179,254.922714 
	C595.389771,254.922699 592.480164,252.372406 591.517883,250.239471 
	C582.703552,230.702347 574.250977,211.002319 565.631470,191.376785 
	C564.030212,187.731018 563.626221,184.364807 567.987000,182.688934 
	C572.096497,181.109680 574.534973,183.505356 576.085022,187.148880 
	C582.459961,202.133469 588.855896,217.109131 595.257629,232.082306 
	C595.942505,233.684311 596.715271,235.248764 597.794128,237.580215 
	C603.332458,224.715256 608.577026,212.544357 613.810852,200.368881 
	C615.713562,195.942810 617.592163,191.506393 619.479004,187.073517 
	C620.905334,183.722641 622.916321,181.007812 627.019409,182.710419 
	C631.142700,184.421432 630.637939,187.665771 629.144043,191.077347 
	C625.012024,200.513809 620.950073,209.980988 616.688965,219.776367 
z"/>
<path fill="#1E1F20" opacity="1.000000" stroke="none" 
	d="
M669.295654,245.183884 
	C649.636047,238.556412 647.881592,208.525375 661.834229,197.103912 
	C673.102722,187.879669 689.905518,191.252289 696.642029,204.437637 
	C701.126465,213.214966 701.324951,222.397293 697.672791,231.468628 
	C692.946167,243.208694 682.487732,248.229614 669.295654,245.183884 
z"/>
<path fill="#1E1F20" opacity="1.000000" stroke="none" 
	d="
M541.941650,213.564606 
	C541.865173,218.148865 542.353149,222.426651 541.492004,226.412949 
	C538.532837,240.110611 526.393066,248.162216 512.830444,245.902054 
	C500.275085,243.809753 491.105835,230.835999 492.353363,216.863159 
	C493.278870,206.496567 497.744446,198.286728 507.574646,194.012451 
	C516.139587,190.288330 524.523071,191.233475 532.131592,196.815536 
	C537.630920,200.850159 540.596313,206.514694 541.941650,213.564606 
z"/>
</svg>